<mxfile host="app.diagrams.net" modified="2023-05-04T10:22:23.480Z" agent="Mozilla/5.0 (Windows NT 10.0; Win64; x64) AppleWebKit/537.36 (KHTML, like Gecko) Chrome/113.0.0.0 Safari/537.36" etag="CZ2es4ijM3xWDOdPzA7P" version="21.2.7" type="onedrive">
  <diagram name="Page-1" id="2YBvvXClWsGukQMizWep">
    <mxGraphModel grid="1" page="1" gridSize="10" guides="1" tooltips="1" connect="1" arrows="1" fold="1" pageScale="1" pageWidth="850" pageHeight="1100" math="0" shadow="0">
      <root>
        <mxCell id="0" />
        <mxCell id="1" parent="0" />
        <mxCell id="vbn1vjWYSr6YsiNQEqlZ-1" value="cd : CreateOrderAccordingToReport" style="shape=umlFrame;whiteSpace=wrap;html=1;pointerEvents=0;width=211;height=19;" vertex="1" parent="1">
          <mxGeometry x="9" y="11" width="1311" height="279" as="geometry" />
        </mxCell>
        <mxCell id="vbn1vjWYSr6YsiNQEqlZ-34" style="edgeStyle=none;rounded=0;orthogonalLoop=1;jettySize=auto;html=1;endArrow=none;endFill=0;entryX=0;entryY=0;entryDx=0;entryDy=0;" edge="1" parent="1" target="vbn1vjWYSr6YsiNQEqlZ-33">
          <mxGeometry relative="1" as="geometry">
            <mxPoint x="10" y="80" as="sourcePoint" />
          </mxGeometry>
        </mxCell>
        <mxCell id="vbn1vjWYSr6YsiNQEqlZ-33" value="&lt;u&gt;orderManag: OrderManagment&lt;/u&gt;" style="html=1;whiteSpace=wrap;" vertex="1" parent="1">
          <mxGeometry x="160" y="80" width="990" height="40" as="geometry" />
        </mxCell>
        <mxCell id="vbn1vjWYSr6YsiNQEqlZ-38" value="CreateOrderAccordingToReport(report)" style="html=1;verticalAlign=bottom;endArrow=block;edgeStyle=orthogonalEdgeStyle;elbow=vertical;strokeColor=default;curved=1;shadow=0;" edge="1" parent="1">
          <mxGeometry x="-0.0857" y="7" width="80" relative="1" as="geometry">
            <mxPoint x="74" y="70" as="sourcePoint" />
            <mxPoint x="144" y="70" as="targetPoint" />
            <mxPoint as="offset" />
          </mxGeometry>
        </mxCell>
        <mxCell id="-T0FkvyXYJcLi5wVd7wv-7" value="&lt;font style=&quot;font-size: 9px;&quot;&gt;1.order = CreateOrder(supplier, report)&lt;br&gt;&lt;/font&gt;" style="html=1;verticalAlign=bottom;endArrow=block;edgeStyle=elbowEdgeStyle;elbow=vertical;curved=0;rounded=0;entryX=0;entryY=0.25;entryDx=0;entryDy=0;" edge="1" parent="1">
          <mxGeometry x="-1" y="-41" width="80" relative="1" as="geometry">
            <mxPoint x="230" y="180" as="sourcePoint" />
            <mxPoint x="230" y="210" as="targetPoint" />
            <mxPoint x="1" y="-10" as="offset" />
          </mxGeometry>
        </mxCell>
        <mxCell id="z478cym8GJyaMH4K4kqJ-1" value="&lt;u&gt;report: PeriodicReport&lt;/u&gt;" style="html=1;whiteSpace=wrap;" vertex="1" parent="1">
          <mxGeometry x="390" y="220" width="90" height="40" as="geometry" />
        </mxCell>
        <mxCell id="z478cym8GJyaMH4K4kqJ-4" value="&lt;font style=&quot;font-size: 9px;&quot;&gt;1.1 supplier = getSupplier()&amp;nbsp;&lt;br&gt;&lt;/font&gt;" style="html=1;verticalAlign=bottom;endArrow=block;edgeStyle=elbowEdgeStyle;elbow=vertical;curved=0;rounded=0;entryX=1.051;entryY=0.464;entryDx=0;entryDy=0;entryPerimeter=0;" edge="1" parent="1">
          <mxGeometry x="0.4232" y="55" width="80" relative="1" as="geometry">
            <mxPoint x="444" y="123" as="sourcePoint" />
            <mxPoint x="444.59000000000015" y="155.56000000000006" as="targetPoint" />
            <mxPoint as="offset" />
          </mxGeometry>
        </mxCell>
        <mxCell id="Vss2ZoUph1Gc0PUGKXlM-4" value="&lt;u&gt;order: Order&lt;/u&gt;" style="html=1;whiteSpace=wrap;" vertex="1" parent="1">
          <mxGeometry x="220" y="220" width="90" height="40" as="geometry" />
        </mxCell>
        <mxCell id="tR6z6oYdsyWB3hS5YqRe-3" value="&lt;font style=&quot;font-size: 9px;&quot;&gt;2. sendDelivery(supplier, order)&lt;br&gt;: OrderManagment&lt;br&gt;&lt;/font&gt;" style="html=1;verticalAlign=bottom;endArrow=block;edgeStyle=elbowEdgeStyle;elbow=vertical;curved=0;rounded=0;" edge="1" parent="1">
          <mxGeometry x="0.0526" y="9" width="80" relative="1" as="geometry">
            <mxPoint x="333" y="177" as="sourcePoint" />
            <mxPoint x="370" y="176" as="targetPoint" />
            <mxPoint as="offset" />
          </mxGeometry>
        </mxCell>
        <mxCell id="tR6z6oYdsyWB3hS5YqRe-4" value="" style="endArrow=none;html=1;rounded=0;entryX=0;entryY=1;entryDx=0;entryDy=0;exitX=0.5;exitY=1;exitDx=0;exitDy=0;" edge="1" parent="1">
          <mxGeometry width="50" height="50" relative="1" as="geometry">
            <mxPoint x="360" y="120" as="sourcePoint" />
            <mxPoint x="320" y="120" as="targetPoint" />
            <Array as="points">
              <mxPoint x="360" y="139" />
              <mxPoint x="320" y="139" />
            </Array>
          </mxGeometry>
        </mxCell>
        <mxCell id="9Zyv4xBOCkm6ERv4zg9V-1" value="" style="endArrow=open;endFill=1;endSize=12;html=1;rounded=0;entryX=0.5;entryY=0;entryDx=0;entryDy=0;exitX=0.277;exitY=1.039;exitDx=0;exitDy=0;exitPerimeter=0;" edge="1" parent="1" source="vbn1vjWYSr6YsiNQEqlZ-33" target="z478cym8GJyaMH4K4kqJ-1">
          <mxGeometry width="160" relative="1" as="geometry">
            <mxPoint x="290" y="180" as="sourcePoint" />
            <mxPoint x="450" y="180" as="targetPoint" />
          </mxGeometry>
        </mxCell>
        <mxCell id="9Zyv4xBOCkm6ERv4zg9V-2" value="" style="endArrow=open;endFill=1;endSize=12;html=1;rounded=0;entryX=0.5;entryY=0;entryDx=0;entryDy=0;exitX=0.855;exitY=1.012;exitDx=0;exitDy=0;exitPerimeter=0;" edge="1" parent="1">
          <mxGeometry width="160" relative="1" as="geometry">
            <mxPoint x="280" y="120" as="sourcePoint" />
            <mxPoint x="281" y="220" as="targetPoint" />
          </mxGeometry>
        </mxCell>
        <mxCell id="X61TuQLKpO-ujkmVQ-R7-1" value="&lt;u&gt;orderMapper: OrdersDataMappers&lt;/u&gt;" style="html=1;whiteSpace=wrap;" vertex="1" parent="1">
          <mxGeometry x="520" y="220" width="130" height="40" as="geometry" />
        </mxCell>
        <mxCell id="X61TuQLKpO-ujkmVQ-R7-2" value="" style="endArrow=open;endFill=1;endSize=12;html=1;rounded=0;entryX=0.5;entryY=0;entryDx=0;entryDy=0;exitX=0.855;exitY=1.012;exitDx=0;exitDy=0;exitPerimeter=0;" edge="1" parent="1">
          <mxGeometry width="160" relative="1" as="geometry">
            <mxPoint x="578" y="120" as="sourcePoint" />
            <mxPoint x="579" y="220" as="targetPoint" />
          </mxGeometry>
        </mxCell>
        <mxCell id="X61TuQLKpO-ujkmVQ-R7-3" value="&lt;font style=&quot;font-size: 9px;&quot;&gt;3. Insert(order)&lt;br&gt;&lt;/font&gt;" style="html=1;verticalAlign=bottom;endArrow=block;edgeStyle=elbowEdgeStyle;elbow=vertical;curved=0;rounded=0;" edge="1" parent="1">
          <mxGeometry x="0.2" y="35" width="80" relative="1" as="geometry">
            <mxPoint x="585" y="150" as="sourcePoint" />
            <mxPoint x="585" y="200" as="targetPoint" />
            <mxPoint as="offset" />
          </mxGeometry>
        </mxCell>
        <mxCell id="pUWSt-H6itci5WD4BWmf-4" value="4. addOrder(o)" style="html=1;verticalAlign=bottom;endArrow=block;edgeStyle=elbowEdgeStyle;elbow=vertical;curved=0;rounded=0;" edge="1" parent="1">
          <mxGeometry x="0.248" y="-22" width="80" relative="1" as="geometry">
            <mxPoint x="704" y="170.5" as="sourcePoint" />
            <mxPoint x="741" y="170" as="targetPoint" />
            <mxPoint as="offset" />
            <Array as="points">
              <mxPoint x="725" y="170" />
            </Array>
          </mxGeometry>
        </mxCell>
        <mxCell id="pUWSt-H6itci5WD4BWmf-5" value="&lt;u&gt;branch: Branch&lt;br&gt;&lt;/u&gt;" style="html=1;whiteSpace=wrap;" vertex="1" parent="1">
          <mxGeometry x="1110" y="220" width="90" height="40" as="geometry" />
        </mxCell>
        <mxCell id="pUWSt-H6itci5WD4BWmf-6" value="8. addOrder(o)" style="html=1;verticalAlign=bottom;endArrow=block;edgeStyle=elbowEdgeStyle;elbow=vertical;curved=0;rounded=0;" edge="1" parent="1">
          <mxGeometry x="0.2267" y="-22" width="80" relative="1" as="geometry">
            <mxPoint x="1163" y="182.75" as="sourcePoint" />
            <mxPoint x="1200" y="182.25" as="targetPoint" />
            <mxPoint as="offset" />
            <Array as="points">
              <mxPoint x="1184" y="182.25" />
            </Array>
          </mxGeometry>
        </mxCell>
        <mxCell id="pUWSt-H6itci5WD4BWmf-9" value="&lt;u&gt;suppMapper: SupplierDataMapper&lt;/u&gt;" style="html=1;whiteSpace=wrap;" vertex="1" parent="1">
          <mxGeometry x="780" y="220" width="115" height="40" as="geometry" />
        </mxCell>
        <mxCell id="pUWSt-H6itci5WD4BWmf-10" value="&lt;u&gt;branchMapper: BranchDataMapper&lt;/u&gt;" style="html=1;whiteSpace=wrap;" vertex="1" parent="1">
          <mxGeometry x="930" y="220" width="115" height="40" as="geometry" />
        </mxCell>
        <mxCell id="pUWSt-H6itci5WD4BWmf-11" value="7. branch= find(branchId)" style="html=1;verticalAlign=bottom;endArrow=block;edgeStyle=elbowEdgeStyle;elbow=vertical;curved=0;rounded=0;" edge="1" parent="1">
          <mxGeometry x="1" y="-24" width="80" relative="1" as="geometry">
            <mxPoint x="980" y="150.6" as="sourcePoint" />
            <mxPoint x="1017" y="150.1" as="targetPoint" />
            <mxPoint x="12" y="-3" as="offset" />
            <Array as="points">
              <mxPoint x="1001" y="150.1" />
            </Array>
          </mxGeometry>
        </mxCell>
        <mxCell id="pUWSt-H6itci5WD4BWmf-12" value="5.update(supplier)" style="html=1;verticalAlign=bottom;endArrow=block;edgeStyle=elbowEdgeStyle;elbow=vertical;curved=0;rounded=0;" edge="1" parent="1">
          <mxGeometry x="1" y="-23" width="80" relative="1" as="geometry">
            <mxPoint x="832" y="188.5" as="sourcePoint" />
            <mxPoint x="869" y="188" as="targetPoint" />
            <mxPoint x="6" y="-1" as="offset" />
            <Array as="points">
              <mxPoint x="853" y="188" />
            </Array>
          </mxGeometry>
        </mxCell>
        <mxCell id="pUWSt-H6itci5WD4BWmf-13" value="9.update(branch)" style="html=1;verticalAlign=bottom;endArrow=block;edgeStyle=elbowEdgeStyle;elbow=vertical;curved=0;rounded=0;" edge="1" parent="1">
          <mxGeometry x="0.7333" y="-20" width="80" relative="1" as="geometry">
            <mxPoint x="974" y="180.5" as="sourcePoint" />
            <mxPoint x="1011" y="180" as="targetPoint" />
            <mxPoint as="offset" />
            <Array as="points">
              <mxPoint x="995" y="180" />
            </Array>
          </mxGeometry>
        </mxCell>
        <mxCell id="pUWSt-H6itci5WD4BWmf-14" value="&lt;u&gt;supplier: Supplier&lt;/u&gt;" style="html=1;whiteSpace=wrap;" vertex="1" parent="1">
          <mxGeometry x="665" y="220" width="90" height="40" as="geometry" />
        </mxCell>
        <mxCell id="pUWSt-H6itci5WD4BWmf-15" value="" style="endArrow=open;endFill=1;endSize=12;html=1;rounded=0;entryX=0.5;entryY=0;entryDx=0;entryDy=0;exitX=0.855;exitY=1.012;exitDx=0;exitDy=0;exitPerimeter=0;" edge="1" parent="1">
          <mxGeometry width="160" relative="1" as="geometry">
            <mxPoint x="690" y="120" as="sourcePoint" />
            <mxPoint x="691" y="220" as="targetPoint" />
          </mxGeometry>
        </mxCell>
        <mxCell id="pUWSt-H6itci5WD4BWmf-16" value="" style="endArrow=open;endFill=1;endSize=12;html=1;rounded=0;entryX=0.5;entryY=0;entryDx=0;entryDy=0;exitX=0.855;exitY=1.012;exitDx=0;exitDy=0;exitPerimeter=0;" edge="1" parent="1">
          <mxGeometry width="160" relative="1" as="geometry">
            <mxPoint x="820" y="120" as="sourcePoint" />
            <mxPoint x="821" y="220" as="targetPoint" />
          </mxGeometry>
        </mxCell>
        <mxCell id="pUWSt-H6itci5WD4BWmf-19" value="&lt;font style=&quot;font-size: 9px;&quot;&gt;6. branchId = getBranch()&lt;br&gt;&lt;/font&gt;" style="html=1;verticalAlign=bottom;endArrow=block;edgeStyle=elbowEdgeStyle;elbow=vertical;curved=0;rounded=0;entryX=1.051;entryY=0.464;entryDx=0;entryDy=0;entryPerimeter=0;" edge="1" parent="1">
          <mxGeometry x="0.3997" y="55" width="80" relative="1" as="geometry">
            <mxPoint x="443" y="171" as="sourcePoint" />
            <mxPoint x="443.59000000000015" y="203.56000000000006" as="targetPoint" />
            <mxPoint as="offset" />
          </mxGeometry>
        </mxCell>
        <mxCell id="pUWSt-H6itci5WD4BWmf-20" value="" style="endArrow=open;endFill=1;endSize=12;html=1;rounded=0;entryX=0.5;entryY=0;entryDx=0;entryDy=0;exitX=0.855;exitY=1.012;exitDx=0;exitDy=0;exitPerimeter=0;" edge="1" parent="1">
          <mxGeometry width="160" relative="1" as="geometry">
            <mxPoint x="960" y="120" as="sourcePoint" />
            <mxPoint x="961" y="220" as="targetPoint" />
          </mxGeometry>
        </mxCell>
        <mxCell id="pUWSt-H6itci5WD4BWmf-21" value="" style="endArrow=open;endFill=1;endSize=12;html=1;rounded=0;entryX=0.5;entryY=0;entryDx=0;entryDy=0;exitX=0.855;exitY=1.012;exitDx=0;exitDy=0;exitPerimeter=0;" edge="1" parent="1">
          <mxGeometry width="160" relative="1" as="geometry">
            <mxPoint x="1140" y="120" as="sourcePoint" />
            <mxPoint x="1141" y="220" as="targetPoint" />
          </mxGeometry>
        </mxCell>
      </root>
    </mxGraphModel>
  </diagram>
</mxfile>
